<svg width="93" height="42" viewBox="0 0 93 42" fill="none" xmlns="http://www.w3.org/2000/svg">
<path fill-rule="evenodd" clip-rule="evenodd" d="M19.9612 23.1707V24.4196L19.9533 24.4177C19.9074 28.2342 19.666 30.9926 19.234 33.0344C18.7478 35.3326 18.003 36.8059 16.9481 37.8594C14.0579 40.7456 11.2791 41.4341 8.99262 40.9002C6.80901 40.3904 5.26703 38.796 4.75359 37.4835C3.87717 35.2429 4.03474 33.1534 4.86389 31.3024C5.67718 29.4868 7.11184 27.9497 8.72443 26.6904C10.7332 25.1216 13.1221 23.9033 15.2361 23.0642C12.279 21.9901 8.74167 20.2975 5.82955 18.0425C3.74818 16.4308 1.91779 14.4794 0.884673 12.1926C-0.164848 9.86942 -0.365698 7.25071 0.746597 4.43122C1.37901 2.82814 3.30701 0.84025 6.04818 0.205609C8.89097 -0.45256 12.4052 0.376097 16.1206 4.05497C17.439 5.36038 18.3909 7.20372 19.0182 10.1434C19.5913 12.8296 19.9077 16.5 19.955 21.6434L19.9613 21.6419V23.0321C19.9613 23.0785 19.9613 23.1247 19.9612 23.1707ZM2.78373 5.23487C1.89823 7.47947 2.06364 9.48306 2.88039 11.291C3.71355 13.1352 5.24944 14.8236 7.17032 16.311C10.4853 18.8779 14.7428 20.69 17.7645 21.5987C17.7156 16.552 17.4032 13.0692 16.8764 10.6004C16.305 7.92207 15.4989 6.52122 14.5798 5.61111C11.2629 2.32686 8.48407 1.8895 6.54214 2.3391C4.49859 2.81223 3.15021 4.3059 2.78373 5.23487ZM23.0136 22.2559V10.3427H25.186V22.2559H23.0136ZM24.1115 8.45061C23.7222 8.45061 23.3796 8.31046 23.0837 8.03015C22.8034 7.73426 22.6632 7.39166 22.6632 7.00234C22.6632 6.61302 22.8034 6.27821 23.0837 5.9979C23.3796 5.70201 23.7222 5.55407 24.1115 5.55407C24.5008 5.55407 24.8356 5.70201 25.1159 5.9979C25.4118 6.27821 25.5598 6.61302 25.5598 7.00234C25.5598 7.39166 25.4118 7.73426 25.1159 8.03015C24.8356 8.31046 24.5008 8.45061 24.1115 8.45061ZM29.2804 22.2559V12.1881H27.2015V10.3427H29.2804V8.59077C29.2804 7.53182 29.5763 6.70646 30.1681 6.11469C30.7754 5.50735 31.6086 5.20368 32.6675 5.20368H35.6108V7.04906H33.088C32.5585 7.04906 32.1536 7.197 31.8733 7.49289C31.593 7.78877 31.4529 8.20145 31.4529 8.73092V10.3427H35.1436V12.1881H31.4529V22.2559H29.2804ZM41.1301 22.2559C40.0712 22.2559 39.238 21.9522 38.6307 21.3449C38.0389 20.7375 37.743 19.9122 37.743 18.8688V12.1881H35.6874V10.3427H37.743V7.35273H39.8921V10.3427H43.9799V12.1881H39.8921V18.7287C39.8921 19.2426 40.0322 19.6552 40.3126 19.9667C40.6084 20.2626 41.0133 20.4105 41.5272 20.4105H43.9332V22.2559H41.1301ZM51.8193 22.5362C50.6047 22.5362 49.5301 22.2637 48.5958 21.7186C47.6614 21.158 46.9217 20.4105 46.3766 19.4762C45.8316 18.5262 45.5591 17.4673 45.5591 16.2993C45.5591 15.1313 45.8316 14.0802 46.3766 13.1458C46.9217 12.1959 47.6614 11.4484 48.5958 10.9033C49.5301 10.3427 50.6047 10.0624 51.8193 10.0624C53.034 10.0624 54.1085 10.3427 55.0429 10.9033C55.9928 11.4484 56.7325 12.1881 57.262 13.1225C57.8071 14.0568 58.0796 15.1158 58.0796 16.2993C58.0796 17.4673 57.8071 18.5262 57.262 19.4762C56.7325 20.4105 55.9928 21.158 55.0429 21.7186C54.1085 22.2637 53.034 22.5362 51.8193 22.5362ZM51.8193 20.6908C52.6447 20.6908 53.361 20.4962 53.9684 20.1068C54.5757 19.7175 55.0507 19.1958 55.3933 18.5418C55.7359 17.8722 55.9072 17.1247 55.9072 16.2993C55.9072 15.4739 55.7359 14.7342 55.3933 14.0802C55.0507 13.4105 54.5757 12.8811 53.9684 12.4918C53.361 12.1024 52.6447 11.9078 51.8193 11.9078C51.0095 11.9078 50.2932 12.1024 49.6703 12.4918C49.0629 12.8811 48.588 13.4105 48.2454 14.0802C47.9028 14.7342 47.7315 15.4739 47.7315 16.2993C47.7315 17.1247 47.9028 17.8722 48.2454 18.5418C48.588 19.1958 49.0629 19.7175 49.6703 20.1068C50.2932 20.4962 51.0095 20.6908 51.8193 20.6908ZM66.8621 10.0624C67.7653 10.0624 68.5907 10.2103 69.3382 10.5062C70.0857 10.7865 70.7319 11.207 71.277 11.7676C71.822 12.3282 72.2425 13.0057 72.5384 13.7999C72.8498 14.5785 73.0056 15.4584 73.0056 16.4395C73.0056 17.6697 72.7486 18.7442 72.2347 19.663C71.7364 20.5818 71.0512 21.2904 70.1791 21.7887C69.307 22.287 68.3182 22.5362 67.2125 22.5362C66.6051 22.5362 66.0212 22.435 65.4605 22.2325C64.9155 22.0301 64.425 21.7498 63.9889 21.3916C63.5685 21.0179 63.2259 20.5974 62.9611 20.1302H62.9144V27.3949H60.7654V16.3694C60.7654 15.0301 61.0301 13.8933 61.5596 12.9589C62.1046 12.0246 62.8365 11.3082 63.7553 10.8099C64.6741 10.3116 65.7097 10.0624 66.8621 10.0624ZM66.8621 11.9078C66.1458 11.9078 65.4839 12.0869 64.8766 12.445C64.2848 12.8032 63.8098 13.3093 63.4517 13.9634C63.1091 14.6174 62.9378 15.3883 62.9378 16.2759C62.9378 17.1792 63.1091 17.9656 63.4517 18.6352C63.8098 19.2893 64.2848 19.7954 64.8766 20.1536C65.4839 20.5117 66.1535 20.6908 66.8855 20.6908C67.633 20.6908 68.3026 20.504 68.8943 20.1302C69.4861 19.7565 69.9533 19.2426 70.2959 18.5885C70.6541 17.9344 70.8332 17.1714 70.8332 16.2993C70.8332 15.3961 70.6541 14.6174 70.2959 13.9634C69.9377 13.3093 69.455 12.8032 68.8476 12.445C68.2559 12.0869 67.594 11.9078 66.8621 11.9078ZM75.7543 22.2559V10.3427H77.9267V22.2559H75.7543ZM76.8522 8.45061C76.4629 8.45061 76.1203 8.31046 75.8244 8.03015C75.5441 7.73426 75.4039 7.39166 75.4039 7.00234C75.4039 6.61302 75.5441 6.27821 75.8244 5.9979C76.1203 5.70201 76.4629 5.55407 76.8522 5.55407C77.2415 5.55407 77.5763 5.70201 77.8566 5.9979C78.1525 6.27821 78.3004 6.61302 78.3004 7.00234C78.3004 7.39166 78.1525 7.73426 77.8566 8.03015C77.5763 8.31046 77.2415 8.45061 76.8522 8.45061ZM86.2725 22.5362C85.1201 22.5362 84.1235 22.2637 83.2825 21.7186C82.4416 21.158 81.7953 20.4027 81.3437 19.4528C80.8921 18.5029 80.6663 17.4517 80.6663 16.2993C80.6663 15.1313 80.9155 14.0802 81.4138 13.1458C81.9121 12.1959 82.6285 11.4484 83.5628 10.9033C84.4972 10.3427 85.6184 10.0624 86.9266 10.0624C88.188 10.0624 89.2703 10.3349 90.1735 10.88C91.0767 11.425 91.7697 12.1647 92.2524 13.0991C92.7508 14.0335 92.9999 15.0768 92.9999 16.2292V22.2559H90.8275V19.8265H90.7808C90.5472 20.2782 90.228 20.7142 89.8231 21.1347C89.4338 21.5395 88.9432 21.8744 88.3515 22.1391C87.7597 22.4038 87.0667 22.5362 86.2725 22.5362ZM86.8331 20.6908C87.6118 20.6908 88.297 20.504 88.8887 20.1302C89.4961 19.7409 89.9632 19.2114 90.2903 18.5418C90.6329 17.8566 90.8042 17.0935 90.8042 16.2526C90.8042 15.4272 90.6407 14.6875 90.3136 14.0335C90.0022 13.3794 89.5506 12.8655 88.9588 12.4918C88.367 12.1024 87.674 11.9078 86.8798 11.9078C86.0389 11.9078 85.3148 12.1024 84.7074 12.4918C84.1157 12.8811 83.6563 13.4105 83.3292 14.0802C83.0178 14.7342 82.8621 15.4817 82.8621 16.3227C82.8621 17.1324 83.0178 17.8722 83.3292 18.5418C83.6407 19.1958 84.0923 19.7175 84.6841 20.1068C85.2758 20.4962 85.9922 20.6908 86.8331 20.6908ZM6.86246 32.1976C6.26275 33.5364 6.1399 35.016 6.79304 36.6857C7.04439 37.3283 8.01088 38.4222 9.49057 38.7677C10.8674 39.0892 12.9068 38.8002 15.4006 36.3098C16.0588 35.6525 16.66 34.6208 17.0915 32.5811C17.4781 30.7537 17.7144 28.1856 17.7623 24.4821C15.5013 25.2059 12.4598 26.5518 10.0723 28.4163C8.62069 29.55 7.47804 30.8234 6.86246 32.1976Z" fill="#B6355B"/>
</svg>
