<svg width="41" height="70" viewBox="0 0 41 70" fill="none" xmlns="http://www.w3.org/2000/svg">
<path d="M34.8747 26.697C31.2853 24.8802 27.2085 23.6837 22.7771 23.6837C14.0474 23.6837 9.30583 27.7605 9.30583 35.4268C9.30583 42.9157 14.3133 46.904 23.2646 46.904C27.4744 46.904 31.4626 45.8847 35.4951 43.9349L35.0963 50.3161C31.1967 52.0886 26.854 52.7976 22.4669 52.7976C9.70465 52.7976 1.99411 46.1506 1.99411 35.3824C1.99411 24.6143 9.70465 18.0116 22.334 18.0116C27.0755 18.0116 31.1967 18.9865 34.4759 20.4931L34.8747 26.697Z" fill="black"/>
<path d="M29.4 40.257C29.1875 39.7516 28.9461 39.1789 28.7102 38.4719C28.093 36.6211 30.0648 34.6023 30.0836 34.5836L28.9789 33.4789C28.8695 33.5883 26.3047 36.1961 27.2273 38.9656C27.482 39.7297 27.7367 40.3328 27.9602 40.8641C28.481 41.8944 28.7516 43.033 28.75 44.1875C28.6584 45.1181 28.3012 46.0028 27.7208 46.736C27.1403 47.4691 26.3613 48.0199 25.4766 48.3227C25.7561 47.2271 25.7519 46.0784 25.4644 44.9849C25.177 43.8914 24.6157 42.8891 23.8336 42.0727L23.018 41.257L22.5633 42.3172C21.1289 45.6641 19.4219 47.125 18.418 47.7344C17.8015 47.3571 17.2835 46.8388 16.9066 46.2222C16.5296 45.6055 16.3046 44.9082 16.25 44.1875C16.3034 43.204 16.55 42.2406 16.9758 41.3523C17.4808 40.2817 17.7654 39.1204 17.8125 37.9375V36.5484C18.4953 36.8297 19.375 37.5664 19.375 39.5V41.5344L20.7367 40.0227C23.168 37.3242 22.6609 34.1109 21.6789 31.9695C22.4254 32.2184 23.0664 32.7111 23.4988 33.3686C23.9312 34.026 24.1297 34.8098 24.0625 35.5938H25.625C25.625 31.268 22.0477 30.125 20.1562 30.125H18.5938L19.5312 31.3742C19.6383 31.5187 21.7672 34.4422 20.5883 37.3805C20.3262 36.6419 19.8455 36.0006 19.2101 35.5419C18.5747 35.0832 17.8148 34.8288 17.0312 34.8125H16.25V37.9375C16.1966 38.921 15.95 39.8844 15.5242 40.7727C15.0192 41.8433 14.7346 43.0046 14.6875 44.1875C14.6875 47.1938 17.6742 50.4375 22.5 50.4375C27.3258 50.4375 30.3125 47.1938 30.3125 44.1875C30.313 42.8248 30.0009 41.4801 29.4 40.257ZM20.0273 48.5047C21.4685 47.3117 22.6327 45.8194 23.4391 44.1312C23.8699 44.8262 24.1147 45.6204 24.1499 46.4374C24.1851 47.2544 24.0094 48.0666 23.6398 48.7961C23.2621 48.8477 22.8813 48.874 22.5 48.875C21.6615 48.8811 20.8272 48.7562 20.0273 48.5047Z" fill="black"/>
</svg>
